Fungal-Grow 200 Thickness 1000.ufo
<glyph name="four" format="1">
  <advance width="1303"/>
  <unicode hex="0034"/>
  <outline>
    <contour>
      <point x="774" y="1317" type="line"/>
      <point x="264" y="520" type="line"/>
      <point x="774" y="520" type="line"/>
    </contour>
    <contour>
      <point x="721" y="1493" type="line"/>
      <point x="975" y="1493" type="line"/>
      <point x="975" y="520" type="line"/>
      <point x="1188" y="520" type="line"/>
      <point x="1188" y="352" type="line"/>
      <point x="975" y="352" type="line"/>
      <point x="975" y="0" type="line"/>
      <point x="774" y="0" type="line"/>
      <point x="774" y="352" type="line"/>
      <point x="100" y="352" type="line"/>
      <point x="100" y="547" type="line"/>
    </contour>
    <component base="blob1" xScale="0" xyScale="-1.2886" yScale="0" yxScale="1.2886" xOffset="813" yOffset="1793"/>
    <component base="blob2" xScale="0" xyScale="-1" yScale="0" yxScale="1" xOffset="916" yOffset="2291"/>
    <component base="blob3" xScale="0" xyScale="-1" yScale="0" yxScale="1" xOffset="1119" yOffset="2707"/>
    <component base="blob4" xScale="0" xyScale="-0.8783" yScale="0" yxScale="0.8783" xOffset="1026" yOffset="3121"/>
    <component base="blob5" xScale="0" xyScale="-1" yScale="0" yxScale="1" xOffset="1222" yOffset="3549"/>
    <component base="blob6" xScale="0" xyScale="-1.1539" yScale="0" yxScale="1.1539" xOffset="1656" yOffset="3796"/>
    <component base="blob7" xScale="0" xyScale="-0.9753" yScale="0" yxScale="0.9753" xOffset="2136" yOffset="3904"/>
    <component base="blob8" xScale="0" xyScale="-0.7047" yScale="0" yxScale="0.7047" xOffset="2327" yOffset="4229"/>
    <component base="blob9" xScale="0" xyScale="-0.4869" yScale="0" yxScale="0.4869" xOffset="2504" yOffset="4414"/>
    <component base="blob1" xScale="0" xyScale="1.2886" yScale="0" yxScale="1.2886" xOffset="934" yOffset="-257"/>
    <component base="blob2" xScale="0" xyScale="1" yScale="0" yxScale="1" xOffset="1224" yOffset="-755"/>
    <component base="blob3" xScale="0" xyScale="1" yScale="0" yxScale="1" xOffset="1617" yOffset="-1021"/>
    <component base="blob4" xScale="0" xyScale="0.8783" yScale="0" yxScale="0.8783" xOffset="2007" yOffset="-1282"/>
    <component base="blob5" xScale="0" xyScale="1" yScale="0" yxScale="1" xOffset="2075" yOffset="-1714"/>
    <component base="blob6" xScale="0" xyScale="1.1539" yScale="0" yxScale="1.1539" xOffset="2243" yOffset="-2234"/>
    <component base="blob7" xScale="0" xyScale="0.9753" yScale="0" yxScale="0.9753" xOffset="2544" yOffset="-2646"/>
    <component base="blob8" xScale="0" xyScale="0.7047" yScale="0" yxScale="0.7047" xOffset="2513" yOffset="-3066"/>
    <component base="blob9" xScale="0" xyScale="0.4869" yScale="0" yxScale="0.4869" xOffset="2478" yOffset="-3357"/>
    <component base="blob2" xScale="0" xyScale="-1" yScale="0" yxScale="1" xOffset="666" yOffset="1298"/>
    <component base="blob3" xScale="0" xyScale="-1" yScale="0" yxScale="1" xOffset="387" yOffset="931"/>
    <component base="blob2" xScale="0" xyScale="1" yScale="0" yxScale="1" xOffset="971" yOffset="277"/>
    <component base="blob3" xScale="0" xyScale="1" yScale="0" yxScale="1" xOffset="1147" yOffset="625"/>
    <component base="blob4" xScale="0" xyScale="0.8783" yScale="0" yxScale="0.8783" xOffset="1107" yOffset="1017"/>
    <component base="blob4" xScale="0" xyScale="0.8783" yScale="0" yxScale="0.8783" xOffset="963" yOffset="1338"/>
    <component base="blob4" xScale="0" xyScale="-0.8783" yScale="0" yxScale="0.8783" xOffset="185" yOffset="555"/>
    <component base="blob5" xScale="0" xyScale="-1" yScale="0" yxScale="1" xOffset="385" yOffset="240"/>
    <component base="blob6" xScale="0" xyScale="-0.7045" yScale="0" yxScale="0.7045" xOffset="692" yOffset="-35"/>
    <contour>
      <point x="651" y="1520" type="move" name="above"/>
    </contour>
    <contour>
      <point x="651" y="0" type="move" name="below"/>
    </contour>
  </outline>
</glyph>
<glyph name="E" format="1">
  <advance width="1294"/>
  <unicode hex="0045"/>
  <outline>
    <contour>
      <point x="201" y="1493" type="line"/>
      <point x="1145" y="1493" type="line"/>
      <point x="1145" y="1323" type="line"/>
      <point x="403" y="1323" type="line"/>
      <point x="403" y="881" type="line"/>
      <point x="1114" y="881" type="line"/>
      <point x="1114" y="711" type="line"/>
      <point x="403" y="711" type="line"/>
      <point x="403" y="170" type="line"/>
      <point x="1163" y="170" type="line"/>
      <point x="1163" y="0" type="line"/>
      <point x="201" y="0" type="line"/>
      <point x="201" y="1493" type="line"/>
    </contour>
    <component base="blob1" xScale="0" xyScale="-1.2886" yScale="0" yxScale="1.2886" xOffset="582" yOffset="1443"/>
    <component base="blob2" xScale="0" xyScale="-1" yScale="0" yxScale="1" xOffset="997" yOffset="1645"/>
    <component base="blob3" xScale="0" xyScale="-1" yScale="0" yxScale="1" xOffset="1330" yOffset="1966"/>
    <component base="blob4" xScale="0" xyScale="-0.8783" yScale="0" yxScale="0.8783" xOffset="1528" yOffset="2326"/>
    <component base="blob5" xScale="0" xyScale="-1" yScale="0" yxScale="1" xOffset="1915" yOffset="2595"/>
    <component base="blob6" xScale="0" xyScale="-1.1539" yScale="0" yxScale="1.1539" xOffset="2441" yOffset="2527"/>
    <component base="blob7" xScale="0" xyScale="-0.9753" yScale="0" yxScale="0.9753" xOffset="2700" yOffset="2115"/>
    <component base="blob8" xScale="0" xyScale="-0.7047" yScale="0" yxScale="0.7047" xOffset="2745" yOffset="1726"/>
    <component base="blob9" xScale="0" xyScale="-0.4869" yScale="0" yxScale="0.4869" xOffset="2916" yOffset="1512"/>
    <component base="blob1" xScale="0" xyScale="-1.2886" yScale="0" yxScale="1.2886" xOffset="495" yOffset="-219"/>
    <component base="blob2" xScale="0" xyScale="-1" yScale="0" yxScale="1" xOffset="36" yOffset="-561"/>
    <component base="blob3" xScale="0" xyScale="-1" yScale="0" yxScale="1" xOffset="-103" yOffset="-972"/>
    <component base="blob4" xScale="0" xyScale="-0.8783" yScale="0" yxScale="0.8783" xOffset="-38" yOffset="-1396"/>
    <component base="blob5" xScale="0" xyScale="-0.8293" yScale="0" yxScale="0.8293" xOffset="53" yOffset="-1809"/>
    <component base="blob6" xScale="0" xyScale="-1.1539" yScale="0" yxScale="1.1539" xOffset="-68" yOffset="-2245"/>
    <component base="blob7" xScale="0" xyScale="-0.9753" yScale="0" yxScale="0.9753" xOffset="-348" yOffset="-2691"/>
    <component base="blob8" xScale="0" xyScale="-0.7047" yScale="0" yxScale="0.7047" xOffset="-275" yOffset="-3042"/>
    <component base="blob9" xScale="0" xyScale="-0.4869" yScale="0" yxScale="0.4869" xOffset="-379" yOffset="-3267"/>
    <contour>
      <point x="670" y="1520" type="move" name="above"/>
    </contour>
    <contour>
      <point x="670" y="0" type="move" name="below"/>
    </contour>
    <contour>
      <point x="670" y="0" type="move" name="cedilla"/>
    </contour>
    <contour>
      <point x="0" y="1520" type="move" name="half"/>
    </contour>
    <contour>
      <point x="960" y="0" type="move" name="ogonek"/>
    </contour>
  </outline>
</glyph>
<glyph name="W" format="1">
  <advance width="2025"/>
  <unicode hex="0057"/>
  <outline>
    <contour>
      <point x="68" y="1493" type="line"/>
      <point x="272" y="1493" type="line"/>
      <point x="586" y="231" type="line"/>
      <point x="899" y="1493" type="line"/>
      <point x="1126" y="1493" type="line"/>
      <point x="1440" y="231" type="line"/>
      <point x="1753" y="1493" type="line"/>
      <point x="1958" y="1493" type="line"/>
      <point x="1583" y="0" type="line"/>
      <point x="1329" y="0" type="line"/>
      <point x="1014" y="1296" type="line"/>
      <point x="696" y="0" type="line"/>
      <point x="442" y="0" type="line"/>
      <point x="68" y="1493" type="line"/>
    </contour>
    <component base="blob1" xScale="0" xyScale="-1.2886" yScale="0" yxScale="1.2886" xOffset="1941" yOffset="1720"/>
    <component base="blob2" xScale="0" xyScale="-1" yScale="0" yxScale="1" xOffset="2249" yOffset="2175"/>
    <component base="blob3" xScale="0" xyScale="-1" yScale="0" yxScale="1" xOffset="2646" yOffset="2441"/>
    <component base="blob4" xScale="0" xyScale="-0.8783" yScale="0" yxScale="0.8783" xOffset="2910" yOffset="2844"/>
    <component base="blob5" xScale="0" xyScale="-1" yScale="0" yxScale="1" xOffset="3001" yOffset="3293"/>
    <component base="blob6" xScale="0" xyScale="-1.1539" yScale="0" yxScale="1.1539" xOffset="2819" yOffset="3757"/>
    <component base="blob7" xScale="0" xyScale="-0.9753" yScale="0" yxScale="0.9753" xOffset="2887" yOffset="4275"/>
    <component base="blob8" xScale="0" xyScale="-0.7047" yScale="0" yxScale="0.7047" xOffset="3158" yOffset="4589"/>
    <component base="blob9" xScale="0" xyScale="-0.4869" yScale="0" yxScale="0.4869" xOffset="3435" yOffset="4698"/>
    <component base="blob1" xScale="0" xyScale="-1.2886" yScale="0" yxScale="-1.2886" xOffset="59" yOffset="1635"/>
    <component base="blob2" xScale="0" xyScale="-1" yScale="0" yxScale="-1" xOffset="-231" yOffset="2133"/>
    <component base="blob3" xScale="0" xyScale="-1" yScale="0" yxScale="-1" xOffset="-682" yOffset="2212"/>
    <component base="blob4" xScale="0" xyScale="-0.8783" yScale="0" yxScale="-0.8783" xOffset="-1131" yOffset="2102"/>
    <component base="blob5" xScale="0" xyScale="-1" yScale="0" yxScale="-1" xOffset="-1577" yOffset="2170"/>
    <component base="blob6" xScale="0" xyScale="-1.1539" yScale="0" yxScale="-1.1539" xOffset="-1820" yOffset="2643"/>
    <component base="blob7" xScale="0" xyScale="-0.9753" yScale="0" yxScale="-0.9753" xOffset="-1661" yOffset="3109"/>
    <component base="blob8" xScale="0" xyScale="-0.7047" yScale="0" yxScale="-0.7047" xOffset="-1342" yOffset="3316"/>
    <component base="blob9" xScale="0" xyScale="-0.4869" yScale="0" yxScale="-0.4869" xOffset="-1127" yOffset="3171"/>
    <component base="blob2" xScale="0" xyScale="-1" yScale="0" yxScale="1" xOffset="1799" yOffset="1201"/>
    <component base="blob3" xScale="0" xyScale="-1" yScale="0" yxScale="1" xOffset="1526" yOffset="872"/>
    <component base="blob4" xScale="0" xyScale="-0.8783" yScale="0" yxScale="0.8783" xOffset="1370" yOffset="459"/>
    <component base="blob5" xScale="0" xyScale="-1" yScale="0" yxScale="1" xOffset="1008" yOffset="285"/>
    <component base="blob2" xScale="0" xyScale="-1" yScale="0" yxScale="-1" xOffset="250" yOffset="1128"/>
    <component base="blob3" xScale="0" xyScale="-1" yScale="0" yxScale="-1" xOffset="709" yOffset="957"/>
    <component base="blob4" xScale="0" xyScale="-0.8783" yScale="0" yxScale="-0.8783" xOffset="797" yOffset="571"/>
    <contour>
      <point x="1013" y="1520" type="move" name="above"/>
    </contour>
    <contour>
      <point x="1013" y="0" type="move" name="below"/>
    </contour>
    <contour>
      <point x="0" y="1520" type="move" name="half"/>
    </contour>
  </outline>
</glyph>
<glyph name="h" format="1">
  <advance width="1298"/>
  <unicode hex="0068"/>
  <outline>
    <contour>
      <point x="1124" y="676" type="curve"/>
      <point x="1124" y="676" type="line"/>
      <point x="1124" y="0" type="line"/>
      <point x="940" y="0" type="line"/>
      <point x="940" y="670" type="line" smooth="yes"/>
      <point x="940" y="882"/>
      <point x="857.333" y="987"/>
      <point x="692" y="987" type="curve" smooth="yes"/>
      <point x="493.333" y="987"/>
      <point x="371" y="851.667"/>
      <point x="371" y="633" type="curve" smooth="yes"/>
      <point x="371" y="0" type="line"/>
      <point x="186" y="0" type="line"/>
      <point x="186" y="1556" type="line"/>
      <point x="371" y="1556" type="line"/>
      <point x="371" y="946" type="line"/>
      <point x="459" y="1080.667"/>
      <point x="577" y="1147"/>
      <point x="733" y="1147" type="curve" smooth="yes"/>
      <point x="990.333" y="1147"/>
      <point x="1124" y="985.333"/>
    </contour>
    <component base="blob1" xScale="1.2886" yScale="-1.2886" xOffset="1208" yOffset="730"/>
    <component base="blob2" yScale="-1" xOffset="1620" yOffset="695"/>
    <component base="blob3" yScale="-1" xOffset="2051" yOffset="540"/>
    <component base="blob4" xScale="0.6152" yScale="-0.6152" xOffset="2359" yOffset="374"/>
    <component base="blob5" yScale="-1" xOffset="2710" yOffset="234"/>
    <component base="blob6" xScale="1.1539" yScale="-1.1539" xOffset="3040" yOffset="-116"/>
    <component base="blob7" xScale="0.9753" yScale="-0.9753" xOffset="3499" yOffset="-47"/>
    <component base="blob8" xScale="0.7047" yScale="-0.7047" xOffset="3801" yOffset="146"/>
    <component base="blob9" xScale="0.4869" yScale="-0.4869" xOffset="3944" yOffset="377"/>
    <component base="blob5" xScale="0.8394" yScale="-0.8394" xOffset="345" yOffset="751"/>
    <component base="blob4" xScale="0.6152" yScale="-0.6152" xOffset="342" yOffset="436"/>
    <component base="blob5" yScale="-1" xOffset="185" yOffset="125"/>
    <component base="blob6" xScale="0.9593" yScale="-0.9593" xOffset="33" yOffset="-171"/>
    <component base="blob7" xScale="0.9753" yScale="-0.9753" xOffset="270" yOffset="-552"/>
    <component base="blob8" xScale="0.7047" yScale="-0.7047" xOffset="632" yOffset="-742"/>
    <component base="blob9" xScale="0.4869" yScale="-0.4869" xOffset="611" yOffset="-1014"/>
    <component base="blob2" yScale="-1" xOffset="798" yOffset="1009"/>
    <component base="blob3" yScale="-1" xOffset="424" yOffset="1010"/>
    <component base="blob4" xScale="0.7824" yScale="-0.7824" xOffset="252" yOffset="1346"/>
    <component base="blob5" xScale="0.5969" yScale="-0.5969" xOffset="385" yOffset="1596"/>
    <component base="blob6" xScale="0.4497" yScale="-0.4497" xOffset="612" yOffset="1661"/>
    <contour>
      <point x="278" y="1520" type="move" name="above"/>
    </contour>
    <contour>
      <point x="678" y="0" type="move" name="below"/>
    </contour>
    <contour>
      <point x="278" y="0" type="move" name="cedilla"/>
    </contour>
    <contour>
      <point x="0" y="1520" type="move" name="half"/>
    </contour>
  </outline>
</glyph>
<glyph name="u" format="1">
  <advance width="1298"/>
  <unicode hex="0075"/>
  <outline>
    <contour>
      <point x="174" y="442" type="curve"/>
      <point x="174" y="442" type="line"/>
      <point x="174" y="1120" type="line"/>
      <point x="358" y="1120" type="line"/>
      <point x="358" y="449" type="line" smooth="yes"/>
      <point x="358" y="237"/>
      <point x="440.667" y="131"/>
      <point x="606" y="131" type="curve" smooth="yes"/>
      <point x="804.667" y="131"/>
      <point x="928" y="266.333"/>
      <point x="928" y="485" type="curve" smooth="yes"/>
      <point x="928" y="1120" type="line"/>
      <point x="1112" y="1120" type="line"/>
      <point x="1112" y="0" type="line"/>
      <point x="928" y="0" type="line"/>
      <point x="928" y="172" type="line"/>
      <point x="838.667" y="36"/>
      <point x="723" y="-29"/>
      <point x="567" y="-29" type="curve" smooth="yes"/>
      <point x="309.667" y="-29"/>
      <point x="174" y="134"/>
    </contour>
    <component base="blob1" xScale="1.0229" yScale="-1.0229" xOffset="69" yOffset="724"/>
    <component base="blob2" xScale="0.8607" yScale="-0.8607" xOffset="-139" yOffset="884"/>
    <component base="blob3" yScale="-1" xOffset="-448" yOffset="811"/>
    <component base="blob4" xScale="0.6152" yScale="-0.6152" xOffset="-646" yOffset="928"/>
    <component base="blob5" yScale="-1" xOffset="-781" yOffset="1157"/>
    <component base="blob6" xScale="1.1539" yScale="-1.1539" xOffset="-1125" yOffset="1136"/>
    <component base="blob7" xScale="0.5898" yScale="-0.5898" xOffset="-1377" yOffset="1260"/>
    <component base="blob8" xScale="0.7047" yScale="-0.7047" xOffset="-1565" yOffset="1214"/>
    <component base="blob9" xScale="0.4869" yScale="-0.4869" xOffset="-1730" yOffset="1115"/>
    <component base="blob4" xScale="0.6152" yScale="-0.6152" xOffset="901" yOffset="352"/>
    <component base="blob5" xScale="0.7751" yScale="-0.7751" xOffset="741" yOffset="573"/>
    <component base="blob6" xScale="0.8532" yScale="-0.8532" xOffset="794" yOffset="829"/>
    <component base="blob7" xScale="0.5898" yScale="-0.5898" xOffset="894" yOffset="1085"/>
    <component base="blob8" xScale="0.7047" yScale="-0.7047" xOffset="1012" yOffset="1242"/>
    <component base="blob9" xScale="0.4869" yScale="-0.4869" xOffset="953" yOffset="1525"/>
    <contour>
      <point x="637" y="1147" type="move" name="above"/>
    </contour>
    <contour>
      <point x="637" y="0" type="move" name="below"/>
    </contour>
    <contour>
      <point x="637" y="0" type="move" name="cedilla"/>
    </contour>
    <contour>
      <point x="0" y="1520" type="move" name="half"/>
    </contour>
    <contour>
      <point x="1051" y="0" type="move" name="ogonek"/>
    </contour>
  </outline>
</glyph>
<glyph name="imacron" format="1">
  <advance width="569"/>
  <unicode hex="012B"/>
  <outline>
    <component base="macron" xOffset="-227" yOffset="-1"/>
    <component base="dotlessi"/>
    <contour>
      <point x="287" y="1556" type="move" name="above-legacy"/>
    </contour>
    <contour>
      <point x="287" y="0" type="move" name="below"/>
    </contour>
    <contour>
      <point x="287" y="0" type="move" name="cedilla"/>
    </contour>
  </outline>
</glyph>
<glyph name="uogonek" format="1">
  <advance width="1298"/>
  <unicode hex="0173"/>
  <outline>
    <component base="u"/>
    <component base="ogonek" xOffset="551"/>
    <contour>
      <point x="637" y="1147" type="move" name="above"/>
    </contour>
  </outline>
</glyph>
<glyph name="uni01EA" format="1">
  <advance width="1612"/>
  <unicode hex="01EA"/>
  <outline>
    <component base="ogonek" xOffset="308"/>
    <component base="O"/>
    <contour>
      <point x="807" y="1520" type="move" name="above"/>
    </contour>
  </outline>
</glyph>
<glyph name="uni0330" format="1">
  <advance width="0"/>
  <unicode hex="0330"/>
  <outline>
    <component base="tilde" xOffset="-1026" yOffset="-1764"/>
    <contour>
      <point x="-512" y="-1" type="move" name="_Ligature below"/>
    </contour>
    <contour>
      <point x="-512" y="-1" type="move" name="_below"/>
    </contour>
    <contour>
      <point x="-512" y="0" type="move" name="_below-mark"/>
    </contour>
    <contour>
      <point x="-512" y="-456" type="move" name="below-mark"/>
    </contour>
  </outline>
</glyph>
<glyph name="uni0348" format="1">
  <advance width="0"/>
  <unicode hex="0348"/>
  <outline>
    <contour>
      <point x="-747" y="-96" type="line"/>
      <point x="-597" y="-96" type="line"/>
      <point x="-597" y="-492" type="line"/>
      <point x="-747" y="-492" type="line"/>
    </contour>
    <contour>
      <point x="-427" y="-96" type="line"/>
      <point x="-277" y="-96" type="line"/>
      <point x="-277" y="-492" type="line"/>
      <point x="-427" y="-492" type="line"/>
    </contour>
    <contour>
      <point x="-512" y="-1" type="move" name="_Ligature below"/>
    </contour>
    <contour>
      <point x="-512" y="-1" type="move" name="_below"/>
    </contour>
    <contour>
      <point x="-512" y="0" type="move" name="_below-mark"/>
    </contour>
    <contour>
      <point x="-512" y="-498" type="move" name="below-mark"/>
    </contour>
  </outline>
</glyph>
<glyph name="uni0421" format="1">
  <advance width="1430"/>
  <unicode hex="0421"/>
  <outline>
    <component base="C"/>
    <contour>
      <point x="844" y="1520" type="move" name="above"/>
    </contour>
  </outline>
</glyph>
<glyph name="uni0425" format="1">
  <advance width="1403"/>
  <unicode hex="0425"/>
  <outline>
    <component base="X"/>
    <contour>
      <point x="717" y="1520" type="move" name="above"/>
    </contour>
  </outline>
</glyph>
<glyph name="uni045F" format="1">
  <advance width="1339"/>
  <unicode hex="045F"/>
  <outline>
    <contour>
      <point x="596" y="0" type="line"/>
      <point x="186" y="0" type="line"/>
      <point x="186" y="1120" type="line"/>
      <point x="371" y="1120" type="line"/>
      <point x="371" y="147" type="line"/>
      <point x="968" y="147" type="line"/>
      <point x="968" y="1120" type="line"/>
      <point x="1153" y="1120" type="line"/>
      <point x="1153" y="0" type="line"/>
      <point x="743" y="0" type="line"/>
      <point x="743" y="-283" type="line"/>
      <point x="596" y="-283" type="line"/>
    </contour>
    <contour>
      <point x="669" y="1147" type="move" name="above"/>
    </contour>
  </outline>
</glyph>
<glyph name="uni05BC" format="1">
  <advance width="0"/>
  <unicode hex="05BC"/>
  <outline>
    <contour>
      <point x="590" y="635" type="line"/>
      <point x="740" y="635" type="line"/>
      <point x="740" y="485" type="line"/>
      <point x="590" y="485" type="line"/>
    </contour>
    <contour>
      <point x="665" y="560" type="move" name="_rtl-inside"/>
    </contour>
  </outline>
</glyph>
<glyph name="uni05F2" format="1">
  <advance width="677"/>
  <unicode hex="05F2"/>
  <outline>
    <component base="uni05D9" xOffset="317"/>
    <component base="uni05D9"/>
    <contour>
      <point x="482" y="0" type="move" name="rtl-below"/>
    </contour>
  </outline>
</glyph>
<glyph name="uni06A0" format="1">
  <advance width="1222"/>
  <unicode hex="06A0"/>
  <outline>
    <component base="uni0639"/>
    <component base="arabic_3dots" xOffset="300" yOffset="1200"/>
    <contour>
      <point x="500" y="1650" type="move" name="rtl-above"/>
    </contour>
    <contour>
      <point x="727" y="-600" type="move" name="rtl-below"/>
    </contour>
  </outline>
</glyph>
<glyph name="uni06AC" format="1">
  <advance width="1688"/>
  <unicode hex="06AC"/>
  <outline>
    <component base="uni0643"/>
    <component base="arabic_dot" xOffset="750" yOffset="1350"/>
    <contour>
      <point x="825" y="1550" type="move" name="rtl-above"/>
    </contour>
    <contour>
      <point x="800" y="-200" type="move" name="rtl-below"/>
    </contour>
  </outline>
</glyph>
<glyph name="uni1DC4" format="1">
  <advance width="0"/>
  <unicode hex="1DC4"/>
  <outline>
    <contour>
      <point x="-336" y="1262" type="line"/>
      <point x="-933" y="1262" type="line"/>
      <point x="-933" y="1410" type="line"/>
      <point x="-398" y="1410" type="line"/>
      <point x="-230" y="1638" type="line"/>
      <point x="-91" y="1638" type="line"/>
    </contour>
    <contour>
      <point x="-512" y="1147" type="move" name="_above"/>
    </contour>
    <contour>
      <point x="-512" y="1282" type="move" name="_above-mark"/>
    </contour>
    <contour>
      <point x="-512" y="1556" type="move" name="above-mark"/>
    </contour>
  </outline>
</glyph>
<glyph name="uni1E12" format="1">
  <advance width="1577"/>
  <unicode hex="1E12"/>
  <outline>
    <component base="uni032D" xOffset="1260" yOffset="1"/>
    <component base="D"/>
    <contour>
      <point x="748" y="1520" type="move" name="above"/>
    </contour>
    <contour>
      <point x="748" y="-491" type="move" name="below"/>
    </contour>
    <contour>
      <point x="0" y="1520" type="move" name="half"/>
    </contour>
  </outline>
</glyph>
<glyph name="uniA748" format="1">
  <advance width="1191"/>
  <unicode hex="A748"/>
  <outline>
    <contour>
      <point x="251" y="1493" type="line"/>
      <point x="453" y="1493" type="line"/>
      <point x="453" y="1269" type="line"/>
      <point x="621" y="1269" type="line"/>
      <point x="621" y="1105" type="line"/>
      <point x="453" y="1105" type="line"/>
      <point x="453" y="170" type="line"/>
      <point x="1180" y="170" type="line"/>
      <point x="1180" y="0" type="line"/>
      <point x="251" y="0" type="line"/>
      <point x="251" y="1105" type="line"/>
      <point x="83" y="1105" type="line"/>
      <point x="83" y="1269" type="line"/>
      <point x="251" y="1269" type="line"/>
    </contour>
    <contour>
      <point x="348" y="1520" type="move" name="above"/>
    </contour>
    <contour>
      <point x="715" y="0" type="move" name="below"/>
    </contour>
    <contour>
      <point x="0" y="1520" type="move" name="half"/>
    </contour>
  </outline>
</glyph>
<glyph name="uniFB52" format="1">
  <advance width="1928"/>
  <unicode hex="FB52"/>
  <outline>
    <component base="arabic_2dots_a" xOffset="825" yOffset="-250"/>
    <component base="uni066E"/>
    <contour>
      <point x="900" y="1000" type="move" name="rtl-above"/>
    </contour>
    <contour>
      <point x="900" y="-600" type="move" name="rtl-below"/>
    </contour>
  </outline>
</glyph>
<glyph name="uniFB7A" format="1">
  <advance width="1322"/>
  <unicode hex="FB7A"/>
  <outline>
    <component base="arabic_3dots_a" xOffset="662" yOffset="150"/>
    <component base="uni062D"/>
    <contour>
      <point x="650" y="1000" type="move" name="rtl-above"/>
    </contour>
    <contour>
      <point x="812" y="-600" type="move" name="rtl-below"/>
    </contour>
  </outline>
</glyph>
<glyph name="uniFB7D" format="1">
  <advance width="1322"/>
  <unicode hex="FB7D"/>
  <outline>
    <component base="uniFEA4"/>
    <component base="arabic_3dots_a" xOffset="400" yOffset="-200"/>
    <contour>
      <point x="600" y="1000" type="move" name="rtl-above"/>
    </contour>
    <contour>
      <point x="600" y="-500" type="move" name="rtl-below"/>
    </contour>
  </outline>
</glyph>
<glyph name="uniFB80" format="1">
  <advance width="1266"/>
  <unicode hex="FB80"/>
  <outline>
    <component base="uniFEA3"/>
    <component base="arabic_4dots" xOffset="400" yOffset="-200"/>
    <contour>
      <point x="600" y="1000" type="move" name="rtl-above"/>
    </contour>
    <contour>
      <point x="600" y="-500" type="move" name="rtl-below"/>
    </contour>
  </outline>
</glyph>
<glyph name="uniFB89" format="1">
  <advance width="1075"/>
  <unicode hex="FB89"/>
  <outline>
    <component base="uni0615" xOffset="-62" yOffset="-250"/>
    <component base="uniFEAA"/>
    <contour>
      <point x="450" y="1600" type="move" name="rtl-above"/>
    </contour>
    <contour>
      <point x="450" y="-150" type="move" name="rtl-below"/>
    </contour>
  </outline>
</glyph>
<glyph name="uniFB94" format="1">
  <advance width="975"/>
  <unicode hex="FB94"/>
  <outline>
    <component base="uniFB90"/>
    <component base="arabic_gaf_bar" xOffset="112"/>
    <contour>
      <point x="250" y="1700" type="move" name="rtl-above"/>
    </contour>
    <contour>
      <point x="300" y="-150" type="move" name="rtl-below"/>
    </contour>
  </outline>
</glyph>
<glyph name="uniFBD5" format="1">
  <advance width="975"/>
  <unicode hex="FBD5"/>
  <outline>
    <component base="uniFEDB"/>
    <component base="arabic_3dots" xOffset="75" yOffset="1500"/>
    <contour>
      <point x="275" y="1950" type="move" name="rtl-above"/>
    </contour>
    <contour>
      <point x="300" y="-150" type="move" name="rtl-below"/>
    </contour>
  </outline>
</glyph>
<glyph name="uniFBDF" format="1">
  <advance width="1058"/>
  <unicode hex="FBDF"/>
  <outline>
    <component base="uniFEEE"/>
    <component base="arabic_3dots" xOffset="300" yOffset="800"/>
    <contour>
      <point x="500" y="1250" type="move" name="rtl-above"/>
    </contour>
    <contour>
      <point x="500" y="-500" type="move" name="rtl-below"/>
    </contour>
  </outline>
</glyph>
<glyph name="uniFE77" format="1">
  <advance width="600"/>
  <unicode hex="FE77"/>
  <outline>
    <component base="uni064E" xOffset="-212"/>
    <component base="uni0640"/>
    <contour>
      <point x="300" y="1500" type="move" name="rtl-above"/>
    </contour>
    <contour>
      <point x="300" y="-100" type="move" name="rtl-below"/>
    </contour>
  </outline>
</glyph>
<glyph name="uniFE80" format="1">
  <advance width="963"/>
  <unicode hex="FE80"/>
  <outline>
    <component base="uni0621"/>
    <contour>
      <point x="450" y="1100" type="move" name="rtl-above"/>
    </contour>
    <contour>
      <point x="500" y="50" type="move" name="rtl-below"/>
    </contour>
  </outline>
</glyph>
<glyph name="uniFEB6" format="1">
  <advance width="2611"/>
  <unicode hex="FEB6"/>
  <outline>
    <component base="uniFEB2"/>
    <component base="arabic_3dots" xOffset="1250" yOffset="800"/>
    <contour>
      <point x="600" y="800" type="move" name="rtl-above"/>
    </contour>
    <contour>
      <point x="600" y="-600" type="move" name="rtl-below"/>
    </contour>
  </outline>
</glyph>
<glyph name="uniFEC9" format="1">
  <advance width="1222"/>
  <unicode hex="FEC9"/>
  <outline>
    <component base="uni0639"/>
    <contour>
      <point x="450" y="1150" type="move" name="rtl-above"/>
    </contour>
    <contour>
      <point x="650" y="-600" type="move" name="rtl-below"/>
    </contour>
  </outline>
</glyph>
<glyph name="uniFED7" format="1">
  <advance width="979"/>
  <unicode hex="FED7"/>
  <outline>
    <component base="uni066F.init"/>
    <component base="arabic_2dots" xOffset="300" yOffset="1150"/>
    <contour>
      <point x="500" y="1350" type="move" name="rtl-above"/>
    </contour>
    <contour>
      <point x="500" y="-150" type="move" name="rtl-below"/>
    </contour>
  </outline>
</glyph>
<glyph name="Hungarumlaut" format="1">
  <advance width="0"/>
  <outline>
    <contour>
      <point x="-263" y="1526" type="line"/>
      <point x="-78" y="1526" type="line"/>
      <point x="-306" y="1262" type="line"/>
      <point x="-459" y="1262" type="line"/>
    </contour>
    <contour>
      <point x="-598" y="1526" type="line"/>
      <point x="-413" y="1526" type="line"/>
      <point x="-641" y="1262" type="line"/>
      <point x="-794" y="1262" type="line"/>
    </contour>
    <contour>
      <point x="-512" y="1147" type="move" name="_above"/>
    </contour>
    <contour>
      <point x="-512" y="1147" type="move" name="_above-mark"/>
    </contour>
    <contour>
      <point x="-512" y="1528" type="move" name="above-mark"/>
    </contour>
  </outline>
</glyph>
<glyph name="uni069E.medi" format="1">
  <advance width="1776"/>
  <outline>
    <component base="uniFEBC"/>
    <component base="arabic_3dots" xOffset="400" yOffset="800"/>
    <contour>
      <point x="600" y="1250" type="move" name="rtl-above"/>
    </contour>
    <contour>
      <point x="550" y="-150" type="move" name="rtl-below"/>
    </contour>
  </outline>
</glyph>
<glyph name="uni06AB.init" format="1">
  <advance width="975"/>
  <outline>
    <component base="uniFEDB"/>
    <component base="arabic_ring" xOffset="500" yOffset="900"/>
    <contour>
      <point x="250" y="1550" type="move" name="rtl-above"/>
    </contour>
    <contour>
      <point x="300" y="-150" type="move" name="rtl-below"/>
    </contour>
  </outline>
</glyph>
<glyph name="uni06AE.init" format="1">
  <advance width="975"/>
  <outline>
    <component base="uniFEDB"/>
    <component base="arabic_3dots_a" xOffset="200" yOffset="-300"/>
    <contour>
      <point x="250" y="1550" type="move" name="rtl-above"/>
    </contour>
    <contour>
      <point x="400" y="-600" type="move" name="rtl-below"/>
    </contour>
  </outline>
</glyph>
